P2
# CREATOR: GIMP PNM Filter Version 1.1
60 60
255
230
206
233
219
219
234
211
214
221
228
214
230
216
225
220
216
210
228
213
238
220
203
231
222
228
212
219
237
216
226
207
227
221
231
212
221
218
232
216
216
219
216
229
219
210
230
223
221
217
217
229
213
220
214
223
219
218
216
216
220
215
224
253
216
205
243
233
223
254
211
255
210
199
254
228
224
255
205
255
212
206
255
210
255
198
247
241
203
255
196
234
255
216
212
249
232
239
224
224
251
205
255
214
209
255
212
251
218
207
255
191
219
255
211
255
215
231
238
232
218
254
214
220
226
228
238
215
223
226
219
205
227
254
207
212
210
222
222
217
213
215
225
225
217
249
217
226
223
222
218
255
205
214
144
151
143
192
212
204
228
223
219
255
206
223
209
204
223
253
208
242
218
215
217
204
225
210
236
244
222
220
230
245
228
199
221
216
221
255
210
226
223
213
226
251
228
214
228
255
215
255
208
251
216
225
210
215
216
252
221
103
74
15
1
2
0
0
42
112
207
225
218
196
226
232
232
250
225
227
209
253
218
195
233
251
219
238
221
212
221
224
217
210
220
216
249
226
206
207
226
212
228
237
229
208
217
198
255
195
243
195
231
214
221
217
232
253
206
232
112
0
6
0
0
0
18
0
3
10
0
166
242
215
234
242
210
223
201
215
230
207
224
252
220
237
211
238
218
209
221
219
216
221
255
222
219
211
236
255
211
222
249
210
226
224
252
236
221
240
206
226
254
208
232
254
220
241
215
86
9
13
0
3
12
0
0
6
16
75
31
9
63
255
209
203
233
212
245
248
208
227
218
228
213
199
220
211
229
237
221
224
239
222
236
214
249
227
198
210
255
201
224
229
206
247
200
216
248
205
223
252
217
233
211
227
214
200
142
13
0
1
0
2
1
0
0
14
47
108
72
3
0
167
218
220
234
245
210
217
245
250
216
203
226
255
219
237
233
223
218
221
224
210
249
217
226
214
221
255
216
224
217
227
223
235
231
211
233
215
215
234
209
212
224
252
218
226
44
0
0
3
3
1
0
1
8
0
31
33
6
29
8
71
226
249
209
230
215
220
244
209
228
255
210
214
211
231
214
210
222
231
248
223
221
206
222
222
255
209
219
222
220
249
217
211
222
255
209
222
245
221
233
252
212
218
226
219
0
10
12
4
0
0
15
0
0
8
0
0
7
5
0
0
155
201
225
217
213
253
209
218
217
207
239
203
228
212
217
251
216
207
223
211
223
228
238
217
223
237
206
236
245
214
237
248
224
231
215
212
233
214
197
226
232
209
236
192
0
0
0
0
13
0
0
0
21
0
19
0
0
0
11
0
7
218
255
242
206
230
212
223
252
220
207
254
224
255
223
218
218
229
254
217
255
202
246
197
216
209
255
200
217
228
216
217
210
205
231
255
208
235
255
198
220
246
223
199
3
8
4
39
26
4
14
18
0
39
33
36
38
5
0
8
0
234
199
211
254
210
204
216
212
235
214
219
216
231
234
216
219
200
220
231
218
211
215
234
251
214
224
221
223
227
241
220
223
255
202
214
236
206
216
244
217
233
202
172
5
0
117
106
48
0
0
0
88
145
170
163
25
7
0
6
1
181
222
209
222
226
233
226
209
245
232
208
226
210
239
215
222
229
226
203
232
221
249
221
211
218
250
209
227
253
207
232
219
211
218
255
210
210
255
204
206
243
225
232
0
119
162
228
170
7
6
52
171
221
186
201
82
0
0
0
3
140
255
228
202
221
250
224
254
225
208
252
223
245
236
197
228
216
209
252
229
244
208
247
247
241
206
237
214
222
214
205
222
249
226
213
223
219
217
231
228
220
219
173
0
151
41
118
222
69
0
81
255
26
81
145
177
3
3
6
13
149
221
213
255
203
221
210
233
213
224
227
213
231
233
220
229
254
224
201
227
222
228
214
204
195
245
218
197
254
239
207
254
211
218
224
203
227
250
211
201
255
224
218
13
172
2
47
221
80
23
67
165
5
6
71
224
0
9
0
0
144
216
213
226
227
213
229
204
224
255
208
224
208
228
248
221
219
213
235
254
219
204
227
255
217
221
249
228
217
252
204
233
231
203
230
255
212
216
255
221
223
200
231
4
67
82
15
148
139
151
109
148
41
0
64
255
0
0
1
8
148
217
225
213
252
224
246
229
211
222
255
221
251
218
230
211
230
244
215
229
208
223
255
203
228
209
211
236
212
212
220
255
215
227
249
222
211
227
214
216
216
255
210
14
25
171
169
175
180
174
184
177
151
112
196
115
5
0
3
9
101
228
241
231
210
221
210
248
231
219
223
211
217
221
222
220
215
234
206
223
254
204
214
235
207
232
241
232
219
199
226
213
206
217
225
207
208
233
238
238
232
214
232
36
39
109
188
175
178
190
183
190
181
165
188
115
1
6
1
0
81
244
212
206
255
214
227
215
208
250
207
222
227
231
230
223
225
221
224
254
209
219
230
207
255
208
223
185
230
228
221
212
221
218
212
224
225
213
215
212
247
220
199
45
122
149
165
183
189
175
188
157
189
137
168
144
0
4
0
3
61
244
215
235
218
215
219
249
225
220
235
255
210
218
222
220
202
222
246
205
223
224
250
218
214
211
193
191
226
184
215
188
214
229
192
172
185
218
250
223
222
225
226
34
18
151
190
187
181
187
189
189
159
155
126
114
15
2
0
0
12
209
244
220
216
210
212
234
218
220
210
213
222
230
233
225
223
225
212
238
205
228
221
223
212
217
225
172
178
212
180
178
178
182
173
204
225
220
229
213
225
201
255
28
44
109
153
168
176
140
160
100
127
153
186
135
0
26
107
89
0
104
238
208
229
255
218
242
222
216
255
212
226
235
237
230
234
237
228
218
252
209
216
217
233
255
185
179
174
190
191
180
196
173
166
203
220
205
211
224
241
230
217
72
117
185
89
123
163
135
140
169
143
180
181
170
75
0
69
100
25
64
201
223
211
202
230
229
202
224
218
254
213
221
226
223
221
217
215
254
210
231
255
212
200
221
215
205
169
166
136
190
141
173
199
193
213
249
236
205
235
208
219
0
103
176
194
104
108
87
110
140
174
176
229
255
172
5
0
12
0
0
97
255
235
219
198
250
243
222
225
223
224
227
227
220
222
253
215
221
232
202
228
209
224
255
217
189
170
176
163
176
183
155
178
203
220
224
217
252
210
221
104
12
105
215
184
183
146
190
174
187
222
255
255
249
225
68
11
0
15
4
0
183
211
255
227
244
220
220
251
210
217
221
221
219
225
209
208
224
229
247
217
218
255
205
214
146
152
145
158
142
160
146
110
211
206
233
224
219
218
100
41
46
217
255
215
187
188
171
192
211
255
252
225
247
250
215
7
0
12
0
0
40
196
235
220
222
221
226
211
230
216
220
254
225
226
254
234
243
220
217
236
215
218
227
255
137
143
153
137
148
124
147
90
246
242
183
216
251
42
0
0
176
251
255
255
215
212
210
255
254
249
255
255
248
255
229
36
1
0
0
1
9
179
239
211
200
231
205
216
254
210
231
201
216
217
209
227
216
217
254
211
209
255
206
194
207
98
142
149
139
157
163
76
243
183
167
109
42
5
11
44
244
255
249
251
255
223
255
255
215
254
255
242
255
255
255
104
1
1
1
4
0
11
177
232
254
215
254
210
216
227
248
219
235
215
227
216
241
225
215
219
227
230
228
221
184
115
127
151
157
134
145
109
3
5
0
0
0
0
8
129
232
255
249
217
250
255
249
255
253
255
253
255
255
226
254
179
1
18
3
1
0
4
21
204
209
227
211
240
247
219
216
252
223
234
235
212
234
220
217
229
244
212
199
255
173
118
155
106
136
162
88
121
0
4
6
16
0
5
1
175
237
241
255
243
231
210
218
250
255
251
212
215
214
220
221
209
34
1
1
1
21
0
0
68
225
213
253
204
223
220
208
234
199
229
211
222
215
218
254
216
221
232
209
228
175
101
154
108
107
134
150
108
9
4
3
0
11
1
66
151
219
218
249
234
236
217
255
255
244
255
234
213
217
189
177
231
174
26
25
1
1
0
19
9
130
218
239
221
223
230
243
212
235
211
253
235
253
224
207
226
216
205
255
186
67
114
110
129
123
110
120
112
2
5
0
18
1
1
169
198
251
255
255
244
255
255
254
255
251
244
243
255
222
252
215
217
205
70
8
22
22
3
1
1
57
208
213
212
247
213
232
214
252
228
211
212
223
212
223
218
253
235
198
46
28
71
107
82
102
103
104
71
0
6
0
11
37
31
214
254
254
221
249
253
255
217
255
251
234
248
225
247
254
255
251
221
221
174
1
11
15
6
1
1
2
99
254
211
230
220
206
235
208
218
205
237
254
203
230
247
213
228
245
47
27
78
105
87
66
74
102
75
17
55
12
15
3
138
255
255
250
255
255
246
252
252
254
255
255
242
255
251
255
255
255
252
211
234
38
36
46
29
1
3
0
44
219
214
250
217
229
254
214
227
254
184
213
227
210
239
211
204
225
180
85
66
22
54
52
93
81
76
96
0
0
48
35
255
255
253
255
253
252
220
255
255
217
243
255
225
246
255
247
252
253
255
255
242
98
50
24
10
35
0
1
4
209
217
223
230
232
221
230
222
195
240
230
214
254
217
224
255
225
213
135
72
88
86
64
122
56
36
12
2
31
2
111
252
255
246
229
254
255
214
250
255
251
253
240
255
255
255
255
216
251
252
247
255
151
11
0
0
50
0
3
0
155
225
205
216
229
191
224
220
254
216
236
234
207
220
210
232
199
255
111
57
22
69
36
65
43
83
55
9
5
0
205
223
249
251
255
224
252
254
222
245
255
254
215
255
255
242
253
225
255
254
227
255
198
0
0
1
35
2
1
4
67
233
215
218
250
231
229
219
212
218
220
221
248
220
228
249
209
217
78
91
71
121
64
109
117
12
63
3
4
62
255
247
255
252
255
249
234
224
255
255
238
255
254
254
255
255
255
255
253
250
251
236
233
17
0
2
27
8
1
14
7
226
227
215
228
243
208
241
207
240
252
202
228
225
201
224
239
210
106
59
34
55
39
104
76
31
93
0
0
122
224
255
225
255
255
235
250
220
252
255
226
247
255
251
227
229
255
253
255
231
255
224
251
0
0
1
36
7
1
1
1
203
224
240
218
239
213
214
247
215
208
222
227
218
255
204
220
255
194
193
119
139
128
145
108
34
0
9
0
131
253
244
234
255
243
253
255
208
254
255
254
254
255
255
243
225
255
250
255
241
255
255
250
0
11
1
30
1
1
1
1
171
215
227
216
211
208
223
221
218
216
233
251
202
226
230
207
226
226
216
219
218
245
225
172
9
0
0
3
194
252
255
255
247
255
253
248
228
255
242
227
251
255
216
255
255
243
255
212
255
250
255
216
37
0
1
9
1
1
15
1
151
213
221
252
221
226
221
254
220
250
219
212
218
221
223
255
215
220
213
232
245
216
222
129
6
6
0
5
217
255
255
254
251
213
252
255
221
249
248
255
251
221
255
255
251
251
252
249
224
252
251
255
31
7
29
0
7
0
0
4
170
228
248
213
223
255
212
224
219
210
223
236
207
242
206
232
209
230
255
206
228
217
226
153
0
70
46
0
237
236
209
253
255
255
241
248
202
255
255
224
247
251
243
245
255
220
255
255
244
255
255
215
18
0
13
34
0
38
7
6
180
223
233
222
221
217
230
216
216
252
215
205
255
214
243
209
224
209
230
214
209
251
202
223
172
194
181
63
142
255
255
250
252
211
255
243
226
253
242
251
255
255
253
229
240
255
255
217
255
215
205
194
15
0
0
0
18
0
78
28
222
214
242
209
207
229
218
221
235
229
216
217
210
220
245
211
223
255
199
226
255
218
229
139
176
177
197
177
141
216
249
255
255
251
255
255
214
250
255
254
249
249
254
254
255
248
255
248
255
191
189
175
85
11
8
16
0
0
14
141
178
222
223
231
229
216
231
230
202
211
232
254
203
219
214
232
248
211
226
255
187
224
186
148
183
180
178
178
197
224
217
255
255
255
255
253
223
255
242
255
236
214
254
255
230
255
255
216
255
166
166
175
52
0
5
0
16
9
93
180
178
214
206
230
232
213
213
248
228
254
206
215
239
254
222
215
230
216
201
184
196
150
154
178
185
173
195
179
177
170
236
247
243
209
255
248
249
255
236
237
255
255
209
235
255
247
255
242
213
190
191
157
104
39
5
1
49
99
181
185
192
222
214
220
223
228
235
221
216
198
230
254
187
227
213
208
245
202
187
173
148
133
188
155
198
186
172
189
202
177
181
250
240
250
243
255
232
254
253
255
249
255
249
255
255
247
254
223
184
168
164
168
122
115
108
88
101
150
178
165
188
218
213
246
238
205
216
204
241
248
216
217
232
214
221
255
217
174
154
174
177
195
181
192
181
171
200
173
170
187
146
224
254
241
255
255
250
252
252
255
243
255
255
255
241
255
251
255
182
181
162
168
157
143
147
139
152
187
181
190
176
184
219
223
213
213
224
252
209
221
226
199
227
250
219
219
222
192
183
171
190
181
181
180
181
180
180
179
179
179
187
177
220
255
242
255
244
255
255
252
210
255
255
213
255
215
250
219
216
156
142
145
149
150
153
182
194
180
176
190
190
175
183
217
254
213
215
220
238
204
230
249
224
226
218
223
230
139
171
196
162
187
187
185
189
182
188
182
186
183
177
188
187
244
252
255
253
212
245
229
254
246
207
255
251
255
255
255
166
85
155
180
166
186
179
178
179
180
177
175
180
188
169
166
211
218
221
251
206
251
207
219
213
220
215
255
210
177
179
186
191
187
180
175
184
173
186
174
183
179
177
185
180
229
238
246
255
255
240
255
255
254
255
255
234
255
252
170
49
75
152
181
188
182
187
179
180
189
190
181
178
184
179
189
218
212
228
201
237
230
218
226
215
251
218
218
221
221
148
193
165
184
184
178
190
176
193
179
191
185
191
170
179
182
218
255
255
250
255
207
255
253
246
241
255
203
145
10
0
115
144
165
188
168
181
184
184
182
186
190
185
176
188
171
184
212
217
223
221
245
201
254
215
226
222
208
223
209
150
184
174
184
185
181
188
179
188
179
186
182
178
188
189
133
153
230
255
255
241
253
245
255
255
193
226
54
11
0
28
116
148
180
173
190
184
185
180
173
175
183
184
179
191
188
191
215
228
240
219
223
227
210
228
209
229
252
222
161
178
166
206
184
184
184
182
183
179
180
178
178
168
200
181
142
107
83
154
202
219
234
178
120
114
83
0
0
0
4
51
98
152
192
172
197
185
179
182
191
189
179
179
188
180
217
214
212
225
217
216
224
210
228
202
255
229
220
245
143
141
158
148
164
178
185
174
191
176
193
183
190
187
181
159
151
120
14
1
11
1
3
1
15
0
0
0
6
17
0
36
98
149
170
183
181
178
181
184
184
179
180
192
207
220
225
218
255
221
254
220
221
251
229
241
222
214
218
227
208
111
109
131
125
145
158
143
173
153
183
169
181
189
181
183
117
96
49
0
0
1
15
7
1
2
1
2
2
0
4
43
101
150
146
187
180
178
189
174
138
133
174
217
233
208
226
205
227
212
221
216
222
206
217
217
230
211
216
255
209
222
195
163
152
100
112
109
115
140
150
157
179
151
140
108
112
79
29
7
45
34
61
76
66
83
56
59
87
105
115
28
65
127
142
146
152
153
135
114
110
196
229
231
206
252
228
250
210
233
239
232
240
223
225
210
210
255
219
225
204
228
213
213
230
220
202
154
117
112
104
98
112
99
121
114
46
87
115
202
231
250
227
214
213
253
243
227
211
254
205
148
79
90
105
87
133
104
106
153
224
254
210
209
255
220
212
224
211
213
217
213
232
230
241
226
223
225
212
205
235
244
222
217
217
213
232
237
239
235
185
113
77
106
82
67
73
203
231
253
207
219
226
254
235
209
192
229
247
206
226
223
61
45
125
118
85
69
168
214
207
202
238
230
208
228
236
223
235
220
219
207
218
213
227
217
217
214
252
223
251
221
222
239
219
227
231
216
211
228
226
207
206
147
162
153
217
240
222
215
231
251
207
214
216
219
229
251
218
225
216
218
213
178
136
164
161
210
220
220
254
230
228
221
255
211
237
210
254
